<?xml version="1.0" encoding="UTF-8" standalone="no"?>
<svg
   width="1280"
   height="640"
   viewBox="0 0 1280 640"
   version="1.1"
   id="svg83"
   sodipodi:docname="banner.svg"
   inkscape:version="1.4.2 (ebf0e940, 2025-05-08)"
   xml:space="preserve"
   xmlns:inkscape="http://www.inkscape.org/namespaces/inkscape"
   xmlns:sodipodi="http://sodipodi.sourceforge.net/DTD/sodipodi-0.dtd"
   xmlns="http://www.w3.org/2000/svg"
   xmlns:svg="http://www.w3.org/2000/svg"><defs
     id="defs87"><style
       id="style1">
      .cls-1 {
        fill: #1d63ed;
        stroke-width: 0px;
      }
    </style></defs><sodipodi:namedview
     id="namedview85"
     pagecolor="#ffffff"
     bordercolor="#000000"
     borderopacity="0.25"
     inkscape:showpageshadow="2"
     inkscape:pageopacity="0.0"
     inkscape:pagecheckerboard="0"
     inkscape:deskcolor="#d1d1d1"
     showgrid="false"
     inkscape:zoom="0.9734375"
     inkscape:cx="699.06902"
     inkscape:cy="259.90369"
     inkscape:window-width="2040"
     inkscape:window-height="1225"
     inkscape:window-x="3070"
     inkscape:window-y="72"
     inkscape:window-maximized="0"
     inkscape:current-layer="g8" /><!-- Background --><!-- Slim accent bar on the left --><!-- Title on the right, plenty of room --><!-- Subtitle --><!-- Placeholder for official Docker logo --><g
     id="g7"><rect
       width="1280"
       height="640"
       fill="#0f2433"
       id="rect65"
       inkscape:label="main"
       x="0"
       y="0" /><g
       id="g5"><rect
         x="0"
         y="0"
         width="200"
         height="640"
         fill="#122e40"
         id="rect67"
         style="stroke-width:1.19523" /><g
         id="g1"
         transform="matrix(0.94824332,0,0,1,6.6666668,20)"><rect
           x="56.244354"
           y="80"
           width="84.366531"
           height="160"
           rx="11.248871"
           fill="#47c5fb"
           opacity="0.55"
           id="rect69"
           style="stroke-width:1.18579" /><rect
           x="56.244354"
           y="280"
           width="84.366531"
           height="120"
           rx="11.248871"
           fill="#47c5fb"
           opacity="0.3"
           id="rect71"
           style="stroke-width:1.18579" /><rect
           x="56.244354"
           y="440"
           width="84.366531"
           height="90"
           rx="11.248871"
           fill="#47c5fb"
           opacity="0.22"
           id="rect73"
           style="stroke-width:1.18579" /></g></g><g
       id="g6"><rect
         x="1080"
         y="0"
         width="200"
         height="640"
         fill="#122e40"
         id="rect67-5"
         style="stroke-width:1.19523" /><g
         id="g1-5"
         transform="matrix(-0.94824332,0,0,-1,1273.3333,630)"><rect
           x="56.244354"
           y="80"
           width="84.366531"
           height="160"
           rx="11.248871"
           fill="#47c5fb"
           opacity="0.55"
           id="rect69-8"
           style="stroke-width:1.18579" /><rect
           x="56.244354"
           y="280"
           width="84.366531"
           height="120"
           rx="11.248871"
           fill="#47c5fb"
           opacity="0.3"
           id="rect71-5"
           style="stroke-width:1.18579" /><rect
           x="56.244354"
           y="440"
           width="84.366531"
           height="90"
           rx="11.248871"
           fill="#47c5fb"
           opacity="0.22"
           id="rect73-6"
           style="stroke-width:1.18579" /></g></g></g><g
     id="g8"><g
       id="g2"
       inkscape:label="Text"
       transform="translate(-85.195924,-137.12354)"><text
         x="379.22952"
         y="224.86356"
         fill="#ffffff"
         font-size="68px"
         font-weight="600"
         font-family="system-ui, '-apple-system', BlinkMacSystemFont, 'Segoe UI', sans-serif"
         id="text75"
         inkscape:label="Flutter Docker">FLUTTER DOCKER</text><text
         x="379.22952"
         y="289.86356"
         fill="#ffffff"
         font-size="30px"
         font-family="system-ui, '-apple-system', BlinkMacSystemFont, 'Segoe UI', sans-serif"
         id="text77"
         inkscape:label="Docker images with the Flutter SDK">Docker images with the Flutter SDK</text></g><path
       class="cls-1"
       d="m 765.73356,425.27772 c -7.76512,-5.22699 -28.1705,-7.45935 -43.00552,-3.46371 -0.79994,-14.77635 -8.41851,-27.22817 -22.35714,-38.09264 l -5.16,-3.46373 -3.4386,5.19351 c -6.75992,10.26133 -9.60797,23.93196 -8.59858,36.35866 0.79577,7.65623 3.45953,16.26319 8.59858,22.50796 -19.30809,11.19952 -37.10419,8.65722 -115.91971,8.65722 H 454.16556 c -0.35599,17.79612 2.50462,52.03131 24.27542,79.90029 2.40409,3.07841 5.04273,6.0563 7.90335,8.92528 17.69976,17.72492 44.4421,30.72123 84.43203,30.75892 61.00685,0.0544 113.2769,-32.92007 145.07034,-112.65284 10.46241,0.17172 38.08004,1.87635 51.59567,-24.24192 0.3309,-0.43976 3.43863,-6.92745 3.43863,-6.92745 l -5.15164,-3.46372 z M 533.58001,409.00197 h -34.21843 v 34.21846 h 34.21843 z m 44.20757,0 h -34.21845 v 34.21846 h 34.21845 z m 44.20756,0 h -34.21845 v 34.21846 h 34.21845 z m 44.20756,0 h -34.21845 v 34.21846 h 34.21845 z m -176.83023,0 h -34.21846 v 34.21846 h 34.21846 z m 44.20754,-43.21911 h -34.21843 v 34.21846 h 34.21843 z m 44.20757,0 h -34.21845 v 34.21846 h 34.21845 z m 44.20756,0 h -34.21845 v 34.21846 h 34.21845 z m 0,-43.22331 h -34.21845 v 34.21846 h 34.21845 z"
       id="path1"
       style="fill:#1d63ed;fill-opacity:1"
       inkscape:label="Docker" /><path
       class="cls-1"
       d="m 1098.2005,275.1981 c -7.7652,-5.22699 -28.1705,-7.45935 -43.0056,-3.46371 -0.7999,-14.77635 -8.4185,-27.22817 -22.3571,-38.09264 l -5.16,-3.46373 -3.4386,5.19351 c -6.7599,10.26133 -9.608,23.93196 -8.5986,36.35866 0.7958,7.65623 3.4595,16.26319 8.5986,22.50796 -19.3081,11.19952 -37.10419,8.65722 -115.91971,8.65722 H 786.63246 c -0.35599,17.79612 2.50462,52.03131 24.27542,79.90029 2.40409,3.07841 5.04273,6.0563 7.90335,8.92528 17.69976,17.72492 44.4421,30.72123 84.43203,30.75892 61.00685,0.0544 113.27694,-32.92007 145.07034,-112.65284 10.4624,0.17172 38.08,1.87635 51.5957,-24.24192 0.3309,-0.43976 3.4386,-6.92745 3.4386,-6.92745 l -5.1516,-3.46372 z M 866.04691,258.92235 h -34.21843 v 34.21846 h 34.21843 z m 44.20757,0 h -34.21845 v 34.21846 h 34.21845 z m 44.20756,0 h -34.21845 v 34.21846 h 34.21845 z m 44.20756,0 h -34.21845 v 34.21846 h 34.21845 z m -176.83023,0 h -34.21846 v 34.21846 h 34.21846 z m 44.20754,-43.21911 h -34.21843 v 34.21846 h 34.21843 z m 44.20757,0 h -34.21845 v 34.21846 h 34.21845 z m 44.20756,0 h -34.21845 v 34.21846 h 34.21845 z m 0,-43.22331 h -34.21845 v 34.21846 h 34.21845 z"
       id="path1-9"
       style="fill:#ffffff;fill-opacity:0.01;stroke-width:0px"
       inkscape:label="Docker" /></g></svg>
